<?xml version="1.0" standalone="no"?>
<!DOCTYPE svg PUBLIC "-//W3C//DTD SVG 20010904//EN"
 "http://www.w3.org/TR/2001/REC-SVG-20010904/DTD/svg10.dtd">
<svg version="1.0" xmlns="http://www.w3.org/2000/svg"
 width="512.000000pt" height="512.000000pt" viewBox="0 0 512.000000 512.000000"
 preserveAspectRatio="xMidYMid meet">

<g transform="translate(0.000000,512.000000) scale(0.100000,-0.100000)"
fill="#000000" stroke="none">
<path d="M2290 4675 c-379 -53 -747 -211 -1050 -454 -94 -75 -269 -250 -342
-343 -202 -256 -353 -566 -419 -861 -66 -294 -66 -620 0 -914 66 -295 217
-605 419 -861 73 -92 248 -268 342 -343 658 -525 1530 -617 2267 -240 212 109
367 221 542 394 287 283 479 615 577 994 38 149 64 327 64 439 l0 74 -209 0
-208 0 -7 -46 c-3 -26 -6 -64 -6 -84 0 -71 -39 -265 -75 -375 -121 -372 -366
-694 -690 -911 -383 -255 -834 -346 -1272 -254 -430 90 -829 362 -1079 735
-252 378 -346 837 -258 1260 90 434 363 839 733 1087 268 179 519 264 864 293
l77 7 0 209 0 209 -87 -1 c-49 -1 -131 -7 -183 -14z"/>
</g>
</svg>
